<?xml version="1.0" encoding="UTF-8" standalone="no"?>
<svg width="169px" height="34px" viewBox="0 0 169 34" version="1.1" xmlns="http://www.w3.org/2000/svg" xmlns:xlink="http://www.w3.org/1999/xlink">
    <!-- Generator: Sketch 41.2 (35397) - http://www.bohemiancoding.com/sketch -->
    <title>Group 2</title>
    <desc>Created with Sketch.</desc>
    <defs></defs>
    <g id="Page-1" stroke="none" stroke-width="1" fill="none" fill-rule="evenodd">
        <g id="Paso-1-Copy-45" transform="translate(-830.000000, -1106.000000)">
            <g id="Group-2" transform="translate(830.000000, 1106.000000)">
                <rect id="Rectangle-6-Copy" fill="#32AEC1" x="0" y="0" width="169" height="34"></rect>
                <path d="M23.8300781,8.6328125 C24.3248723,9.0559917 24.5722656,9.65819922 24.5722656,10.4394531 C24.5722656,11.2597697 24.3248723,11.8969704 23.8300781,12.3510742 C23.335284,12.8051781 22.6419315,13.0322266 21.75,13.0322266 L20.4804688,13.0322266 L20.4804688,15 L18.6982422,15 L18.6982422,7.99804688 L21.75,7.99804688 C22.6419315,7.99804688 23.335284,8.2096333 23.8300781,8.6328125 Z M20.4804688,11.6308594 L21.6621094,11.6308594 C22.0559916,11.6308594 22.3587229,11.5340179 22.5703125,11.340332 C22.7819021,11.1466462 22.8876953,10.8658873 22.8876953,10.4980469 C22.8876953,10.1367169 22.7810883,9.86328218 22.5678711,9.67773438 C22.3546539,9.49218657 22.0527363,9.39941406 21.6621094,9.39941406 L20.4804688,9.39941406 L20.4804688,11.6308594 Z M27.3993359,13.7109375 L26.8915234,15 L25.0604687,15 L28.0780469,7.99804688 L29.9091015,7.99804688 L32.8583203,15 L30.9589062,15 L30.4608594,13.7109375 L27.3993359,13.7109375 Z M28.9374219,9.77050781 L27.916914,12.3583984 L29.9383984,12.3583984 L28.9374219,9.77050781 Z M37.5164453,13.0322266 L36.1150781,13.0322266 L36.1150781,15 L34.3328515,15 L34.3328515,7.99804688 L37.4627343,7.99804688 C38.3904734,7.99804688 39.1074258,8.2096333 39.6136132,8.6328125 C40.1198007,9.0559917 40.3728906,9.65819922 40.3728906,10.4394531 C40.3728906,10.97331 40.264656,11.4298484 40.0481836,11.809082 C39.8317111,12.1883157 39.5167729,12.4820953 39.1033593,12.6904297 L40.5730859,15 L38.5564843,15 L37.5164453,13.0322266 Z M37.4627343,11.6308594 C37.8501061,11.6308594 38.150396,11.5340179 38.3636132,11.340332 C38.5768305,11.1466462 38.6834375,10.8658873 38.6834375,10.4980469 C38.6834375,10.1367169 38.5768305,9.86328218 38.3636132,9.67773438 C38.150396,9.49218657 37.8501061,9.39941406 37.4627343,9.39941406 L36.1150781,9.39941406 L36.1150781,11.6308594 L37.4627343,11.6308594 Z M45.6413671,9.42871094 L45.6413671,15 L43.8591406,15 L43.8591406,9.42871094 L41.7692968,9.42871094 L41.7692968,7.98828125 L47.7507421,7.98828125 L47.7507421,9.42871094 L45.6413671,9.42871094 Z M49.3375781,15 L49.3375781,7.99804688 L51.1198046,7.99804688 L51.1198046,15 L49.3375781,15 Z M58.1631835,8.25927734 C58.6661157,8.47249456 59.0949851,8.75976382 59.4498046,9.12109375 L58.4195312,10.3417969 C58.1916654,10.0618476 57.9198583,9.83968181 57.6041015,9.67529297 C57.2883447,9.51090413 56.9725926,9.42871094 56.6568359,9.42871094 C56.2889955,9.42871094 55.9569675,9.51741448 55.6607421,9.69482422 C55.3645167,9.87223396 55.1317716,10.1155583 54.9624999,10.4248047 C54.7932282,10.734051 54.7085937,11.0790997 54.7085937,11.4599609 C54.7085937,11.8473327 54.7932282,12.1972641 54.9624999,12.5097656 C55.1317716,12.8222672 55.3653305,13.0688468 55.6631835,13.2495117 C55.9610366,13.4301767 56.2922507,13.5205078 56.6568359,13.5205078 C56.9498061,13.5205078 57.2549788,13.4472664 57.5723632,13.3007812 C57.8897476,13.1542961 58.1721341,12.9541028 58.4195312,12.7001953 L59.4595702,13.7988281 C59.0787089,14.1861999 58.6303085,14.4962553 58.1143554,14.7290039 C57.5984023,14.9617525 57.0832707,15.078125 56.5689452,15.078125 C55.8755824,15.078125 55.248961,14.9218766 54.6890624,14.609375 C54.1291638,14.2968734 53.6889013,13.8655626 53.3682616,13.3154297 C53.047622,12.7652967 52.8873046,12.1533237 52.8873046,11.4794922 C52.8873046,10.8121711 53.0508772,10.2107774 53.3780273,9.67529297 C53.7051773,9.13980852 54.1535778,8.71663567 54.7232421,8.40576172 C55.2929064,8.09488777 55.9276657,7.93945312 56.627539,7.93945312 C57.1483749,7.93945312 57.6602513,8.04606013 58.1631835,8.25927734 Z M61.0952343,15 L61.0952343,7.99804688 L62.8774608,7.99804688 L62.8774608,15 L61.0952343,15 Z M70.2357811,8.6328125 C70.7305753,9.0559917 70.9779686,9.65819922 70.9779686,10.4394531 C70.9779686,11.2597697 70.7305753,11.8969704 70.2357811,12.3510742 C69.740987,12.8051781 69.0476346,13.0322266 68.155703,13.0322266 L66.8861718,13.0322266 L66.8861718,15 L65.1039452,15 L65.1039452,7.99804688 L68.155703,7.99804688 C69.0476346,7.99804688 69.740987,8.2096333 70.2357811,8.6328125 Z M66.8861718,11.6308594 L68.0678124,11.6308594 C68.4616946,11.6308594 68.7644259,11.5340179 68.9760155,11.340332 C69.1876051,11.1466462 69.2933983,10.8658873 69.2933983,10.4980469 C69.2933983,10.1367169 69.1867913,9.86328218 68.9735741,9.67773438 C68.7603569,9.49218657 68.4584393,9.39941406 68.0678124,9.39941406 L66.8861718,9.39941406 L66.8861718,11.6308594 Z M73.8050389,13.7109375 L73.2972264,15 L71.4661717,15 L74.4837499,7.99804688 L76.3148046,7.99804688 L79.2640233,15 L77.3646092,15 L76.8665624,13.7109375 L73.8050389,13.7109375 Z M75.3431249,9.77050781 L74.3226171,12.3583984 L76.3441014,12.3583984 L75.3431249,9.77050781 Z M85.6311327,15 L82.4084764,10.6884766 L82.4084764,15 L80.7385545,15 L80.7385545,7.99804688 L82.3108202,7.99804688 L85.5383592,12.3193359 L85.5383592,7.99804688 L87.1985155,7.99804688 L87.1985155,15 L85.6311327,15 Z M92.6671873,9.42871094 L92.6671873,15 L90.8849608,15 L90.8849608,9.42871094 L88.795117,9.42871094 L88.795117,7.98828125 L94.7765623,7.98828125 L94.7765623,9.42871094 L92.6671873,9.42871094 Z M98.1456248,9.39941406 L98.1456248,10.7910156 L101.485469,10.7910156 L101.485469,12.1923828 L98.1456248,12.1923828 L98.1456248,13.5986328 L101.954219,13.5986328 L101.954219,15 L96.3633983,15 L96.3633983,7.99804688 L101.846797,7.99804688 L101.846797,9.39941406 L98.1456248,9.39941406 Z M108.863242,9.39941406 L108.863242,10.7910156 L112.203086,10.7910156 L112.203086,12.1923828 L108.863242,12.1923828 L108.863242,13.5986328 L112.671836,13.5986328 L112.671836,15 L107.081015,15 L107.081015,7.99804688 L112.564414,7.99804688 L112.564414,9.39941406 L108.863242,9.39941406 Z M118.82166,8.12988281 C119.308316,8.26985747 119.735558,8.46028525 120.103398,8.70117188 L119.42957,10.0878906 C119.06173,9.8730458 118.668667,9.6980801 118.250371,9.56298828 C117.832074,9.42789646 117.479702,9.36035156 117.193242,9.36035156 C116.958866,9.36035156 116.771693,9.40348264 116.631719,9.48974609 C116.491744,9.57600955 116.421758,9.70214761 116.421758,9.86816406 C116.421758,10.0895193 116.529992,10.2587885 116.746465,10.3759766 C116.962937,10.4931646 117.303917,10.6184889 117.769414,10.7519531 C118.257698,10.8919278 118.658084,11.0319003 118.970586,11.171875 C119.283087,11.3118497 119.553267,11.5218085 119.781133,11.8017578 C120.008998,12.0817071 120.122929,12.4544248 120.122929,12.9199219 C120.122929,13.3723981 119.999233,13.7605778 119.751836,14.0844727 C119.504439,14.4083675 119.169156,14.6516919 118.745976,14.8144531 C118.322797,14.9772144 117.847541,15.0585938 117.320195,15.0585938 C116.740765,15.0585938 116.167854,14.9584971 115.601445,14.7583008 C115.035036,14.5581045 114.541877,14.2854835 114.121953,13.9404297 L114.810429,12.5683594 C115.165249,12.8743505 115.582725,13.1258128 116.062871,13.3227539 C116.543016,13.519695 116.968631,13.6181641 117.339726,13.6181641 C117.626186,13.6181641 117.849979,13.566895 118.011113,13.4643555 C118.172247,13.3618159 118.252812,13.2096364 118.252812,13.0078125 C118.252812,12.7799468 118.140509,12.6066087 117.915898,12.487793 C117.691288,12.3689773 117.342984,12.2460944 116.870976,12.1191406 C116.392458,11.9856764 115.997768,11.8522142 115.686894,11.71875 C115.37602,11.5852858 115.109096,11.3818373 114.886113,11.1083984 C114.66313,10.8349596 114.55164,10.4752626 114.55164,10.0292969 C114.55164,9.60286245 114.666385,9.23177241 114.895879,8.91601562 C115.125372,8.60025884 115.451703,8.35530686 115.874883,8.18115234 C116.298062,8.00699783 116.786338,7.91992188 117.339726,7.91992188 C117.841031,7.91992188 118.335004,7.98990815 118.82166,8.12988281 Z M126.731738,8.25927734 C127.23467,8.47249456 127.66354,8.75976382 128.018359,9.12109375 L126.988086,10.3417969 C126.76022,10.0618476 126.488413,9.83968181 126.172656,9.67529297 C125.856899,9.51090413 125.541147,9.42871094 125.22539,9.42871094 C124.85755,9.42871094 124.525522,9.51741448 124.229297,9.69482422 C123.933071,9.87223396 123.700326,10.1155583 123.531054,10.4248047 C123.361783,10.734051 123.277148,11.0790997 123.277148,11.4599609 C123.277148,11.8473327 123.361783,12.1972641 123.531054,12.5097656 C123.700326,12.8222672 123.933885,13.0688468 124.231738,13.2495117 C124.529591,13.4301767 124.860805,13.5205078 125.22539,13.5205078 C125.518361,13.5205078 125.823533,13.4472664 126.140918,13.3007812 C126.458302,13.1542961 126.740689,12.9541028 126.988086,12.7001953 L128.028125,13.7988281 C127.647263,14.1861999 127.198863,14.4962553 126.68291,14.7290039 C126.166957,14.9617525 125.651825,15.078125 125.1375,15.078125 C124.444137,15.078125 123.817516,14.9218766 123.257617,14.609375 C122.697718,14.2968734 122.257456,13.8655626 121.936816,13.3154297 C121.616177,12.7652967 121.455859,12.1533237 121.455859,11.4794922 C121.455859,10.8121711 121.619432,10.2107774 121.946582,9.67529297 C122.273732,9.13980852 122.722132,8.71663567 123.291797,8.40576172 C123.861461,8.09488777 124.49622,7.93945312 125.196093,7.93945312 C125.716929,7.93945312 126.228806,8.04606013 126.731738,8.25927734 Z M135.576875,13.659668 C135.316457,14.1137718 134.946181,14.4637032 134.466035,14.7094727 C133.985889,14.9552421 133.42193,15.078125 132.77414,15.078125 C132.11984,15.078125 131.550184,14.9552421 131.065156,14.7094727 C130.580128,14.4637032 130.205782,14.1137718 129.942109,13.659668 C129.678436,13.2055641 129.546601,12.6725291 129.546601,12.0605469 L129.546601,7.99804688 L131.323945,7.99804688 L131.323945,12.0605469 C131.323945,12.526044 131.459035,12.897134 131.729218,13.1738281 C131.999402,13.4505222 132.350961,13.5888672 132.783906,13.5888672 C133.21034,13.5888672 133.552134,13.4521498 133.809297,13.1787109 C134.066459,12.9052721 134.195039,12.5325544 134.195039,12.0605469 L134.195039,7.99804688 L135.9675,7.99804688 L135.9675,12.0605469 C135.9675,12.6725291 135.837293,13.2055641 135.576875,13.659668 Z M139.85414,9.39941406 L139.85414,10.7910156 L143.193984,10.7910156 L143.193984,12.1923828 L139.85414,12.1923828 L139.85414,13.5986328 L143.662734,13.5986328 L143.662734,15 L138.071914,15 L138.071914,7.99804688 L143.555312,7.99804688 L143.555312,9.39941406 L139.85414,9.39941406 Z M150.391172,13.5107422 L150.391172,15 L145.640195,15 L145.640195,7.99804688 L147.422422,7.99804688 L147.422422,13.5107422 L150.391172,13.5107422 Z M153.686992,13.7109375 L153.179179,15 L151.348125,15 L154.365703,7.99804688 L156.196757,7.99804688 L159.145976,15 L157.246562,15 L156.748515,13.7109375 L153.686992,13.7109375 Z M155.225078,9.77050781 L154.20457,12.3583984 L156.226054,12.3583984 L155.225078,9.77050781 Z M23.6445312,20.4399414 C24.2076851,20.7345392 24.64632,21.146319 24.9604492,21.675293 C25.2745784,22.204267 25.4316406,22.812171 25.4316406,23.4990234 C25.4316406,24.1793654 25.2713232,24.7848281 24.9506836,25.3154297 C24.630044,25.8460313 24.1832711,26.2594386 23.6103516,26.5556641 C23.037432,26.8518895 22.3798865,27 21.6376953,27 L18.6982422,27 L18.6982422,19.9980469 L21.7109375,19.9980469 C22.4368526,19.9980469 23.0813774,20.1453436 23.6445312,20.4399414 Z M20.4804688,25.5791016 L21.75,25.5791016 C22.1113299,25.5791016 22.4335923,25.4928394 22.7167969,25.3203125 C23.0000014,25.1477856 23.2213534,24.9044612 23.3808594,24.590332 C23.5403654,24.2762029 23.6201172,23.9156921 23.6201172,23.5087891 C23.6201172,23.101886 23.5371102,22.7405615 23.3710938,22.4248047 C23.2050773,22.1090479 22.973146,21.8624683 22.675293,21.6850586 C22.3774399,21.5076489 22.0429706,21.4189453 21.671875,21.4189453 L20.4804688,21.4189453 L20.4804688,25.5791016 Z M28.9764844,21.3994141 L28.9764844,22.7910156 L32.3163281,22.7910156 L32.3163281,24.1923828 L28.9764844,24.1923828 L28.9764844,25.5986328 L32.7850781,25.5986328 L32.7850781,27 L27.1942578,27 L27.1942578,19.9980469 L32.6776562,19.9980469 L32.6776562,21.3994141 L28.9764844,21.3994141 Z M37.9118749,27 L37.9118749,19.9980469 L39.6941015,19.9980469 L39.6941015,27 L37.9118749,27 Z M46.813164,27 L43.5905077,22.6884766 L43.5905077,27 L41.9205859,27 L41.9205859,19.9980469 L43.4928515,19.9980469 L46.7203906,24.3193359 L46.7203906,19.9980469 L48.3805468,19.9980469 L48.3805468,27 L46.813164,27 Z M55.4239257,20.2592773 C55.9268579,20.4724946 56.3557273,20.7597638 56.7105468,21.1210938 L55.6802734,22.3417969 C55.4524076,22.0618476 55.1806005,21.8396818 54.8648437,21.675293 C54.5490869,21.5109041 54.2333348,21.4287109 53.917578,21.4287109 C53.5497377,21.4287109 53.2177097,21.5174145 52.9214843,21.6948242 C52.6252589,21.872234 52.3925138,22.1155583 52.2232421,22.4248047 C52.0539704,22.734051 51.9693359,23.0790997 51.9693359,23.4599609 C51.9693359,23.8473327 52.0539704,24.1972641 52.2232421,24.5097656 C52.3925138,24.8222672 52.6260726,25.0688468 52.9239257,25.2495117 C53.2217787,25.4301767 53.5529929,25.5205078 53.917578,25.5205078 C54.2105483,25.5205078 54.515721,25.4472664 54.8331054,25.3007812 C55.1504898,25.1542961 55.4328763,24.9541028 55.6802734,24.7001953 L56.7203124,25.7988281 C56.3394511,26.1861999 55.8910507,26.4962553 55.3750976,26.7290039 C54.8591445,26.9617525 54.3440129,27.078125 53.8296874,27.078125 C53.1363246,27.078125 52.5097032,26.9218766 51.9498046,26.609375 C51.389906,26.2968734 50.9496434,25.8655626 50.6290038,25.3154297 C50.3083642,24.7652967 50.1480468,24.1533237 50.1480468,23.4794922 C50.1480468,22.8121711 50.3116194,22.2107774 50.6387694,21.675293 C50.9659195,21.1398085 51.41432,20.7166357 51.9839843,20.4057617 C52.5536486,20.0948878 53.1884079,19.9394531 53.8882812,19.9394531 C54.4091171,19.9394531 54.9209935,20.0460601 55.4239257,20.2592773 Z M58.3559765,27 L58.3559765,19.9980469 L60.138203,19.9980469 L60.138203,27 L58.3559765,27 Z M67.3109764,20.4399414 C67.8741303,20.7345392 68.3127652,21.146319 68.6268944,21.675293 C68.9410236,22.204267 69.0980858,22.812171 69.0980858,23.4990234 C69.0980858,24.1793654 68.9377684,24.7848281 68.6171288,25.3154297 C68.2964892,25.8460313 67.8497163,26.2594386 67.2767968,26.5556641 C66.7038772,26.8518895 66.0463317,27 65.3041405,27 L62.3646874,27 L62.3646874,19.9980469 L65.3773827,19.9980469 C66.1032978,19.9980469 66.7478226,20.1453436 67.3109764,20.4399414 Z M64.1469139,25.5791016 L65.4164452,25.5791016 C65.7777751,25.5791016 66.1000375,25.4928394 66.3832421,25.3203125 C66.6664466,25.1477856 66.8877986,24.9044612 67.0473046,24.590332 C67.2068106,24.2762029 67.2865624,23.9156921 67.2865624,23.5087891 C67.2865624,23.101886 67.2035554,22.7405615 67.0375389,22.4248047 C66.8715225,22.1090479 66.6395912,21.8624683 66.3417382,21.6850586 C66.0438851,21.5076489 65.7094158,21.4189453 65.3383202,21.4189453 L64.1469139,21.4189453 L64.1469139,25.5791016 Z M72.6429296,21.3994141 L72.6429296,22.7910156 L75.9827733,22.7910156 L75.9827733,24.1923828 L72.6429296,24.1923828 L72.6429296,25.5986328 L76.4515233,25.5986328 L76.4515233,27 L70.860703,27 L70.860703,19.9980469 L76.3441014,19.9980469 L76.3441014,21.3994141 L72.6429296,21.3994141 Z M83.3215623,27 L80.0989061,22.6884766 L80.0989061,27 L78.4289842,27 L78.4289842,19.9980469 L80.0012498,19.9980469 L83.2287889,24.3193359 L83.2287889,19.9980469 L84.8889452,19.9980469 L84.8889452,27 L83.3215623,27 Z M91.9323241,20.2592773 C92.4352563,20.4724946 92.8641257,20.7597638 93.2189451,21.1210938 L92.1886717,22.3417969 C91.960806,22.0618476 91.6889988,21.8396818 91.373242,21.675293 C91.0574852,21.5109041 90.7417332,21.4287109 90.4259764,21.4287109 C90.058136,21.4287109 89.7261081,21.5174145 89.4298826,21.6948242 C89.1336572,21.872234 88.9009121,22.1155583 88.7316405,22.4248047 C88.5623688,22.734051 88.4777342,23.0790997 88.4777342,23.4599609 C88.4777342,23.8473327 88.5623688,24.1972641 88.7316405,24.5097656 C88.9009121,24.8222672 89.134471,25.0688468 89.4323241,25.2495117 C89.7301771,25.4301767 90.0613912,25.5205078 90.4259764,25.5205078 C90.7189466,25.5205078 91.0241193,25.4472664 91.3415037,25.3007812 C91.6588881,25.1542961 91.9412746,24.9541028 92.1886717,24.7001953 L93.2287108,25.7988281 C92.8478495,26.1861999 92.399449,26.4962553 91.8834959,26.7290039 C91.3675428,26.9617525 90.8524113,27.078125 90.3380858,27.078125 C89.6447229,27.078125 89.0181016,26.9218766 88.458203,26.609375 C87.8983043,26.2968734 87.4580418,25.8655626 87.1374022,25.3154297 C86.8167626,24.7652967 86.6564451,24.1533237 86.6564451,23.4794922 C86.6564451,22.8121711 86.8200177,22.2107774 87.1471678,21.675293 C87.4743179,21.1398085 87.9227183,20.7166357 88.4923826,20.4057617 C89.062047,20.0948878 89.6968062,19.9394531 90.3966795,19.9394531 C90.9175155,19.9394531 91.4293918,20.0460601 91.9323241,20.2592773 Z M94.8643748,27 L94.8643748,19.9980469 L96.6466014,19.9980469 L96.6466014,27 L94.8643748,27 Z M100.464883,25.7109375 L99.9570701,27 L98.1260154,27 L101.143594,19.9980469 L102.974648,19.9980469 L105.923867,27 L104.024453,27 L103.526406,25.7109375 L100.464883,25.7109375 Z M102.002969,21.7705078 L100.982461,24.3583984 L103.003945,24.3583984 L102.002969,21.7705078 Z M114.143926,20.1445312 C114.506883,20.2942716 114.790083,20.5074856 114.993535,20.7841797 C115.196986,21.0608738 115.298711,21.3831362 115.298711,21.7509766 C115.298711,22.1123065 115.183966,22.4842103 114.954472,22.8666992 C114.724979,23.2491881 114.400275,23.6536437 113.980351,24.0800781 L112.559453,25.5888672 L115.508672,25.5888672 L115.508672,27 L110.269414,27 L110.269414,25.8476562 L112.769414,23.2011719 C112.967983,22.9863271 113.129114,22.7706717 113.252812,22.5541992 C113.376511,22.3377268 113.438359,22.1529956 113.438359,22 C113.438359,21.8014313 113.368373,21.6451829 113.228398,21.53125 C113.088424,21.4173171 112.894741,21.3603516 112.647344,21.3603516 C112.367394,21.3603516 112.061408,21.4384758 111.729375,21.5947266 C111.397342,21.7509773 111.066942,21.9690741 110.738164,22.2490234 L110.069219,20.9697266 C111.003468,20.2698533 111.950724,19.9199219 112.911015,19.9199219 C113.370002,19.9199219 113.780968,19.9947909 114.143926,20.1445312 Z M122.486133,20.8598633 C123.019989,21.4734731 123.286914,22.3499292 123.286914,23.4892578 C123.286914,24.6350969 123.019989,25.5148081 122.486133,26.128418 C121.952276,26.7420278 121.188937,27.0488281 120.196093,27.0488281 C119.19674,27.0488281 118.428518,26.7420278 117.891406,26.128418 C117.354294,25.5148081 117.085742,24.6350969 117.085742,23.4892578 C117.085742,22.3499292 117.354294,21.4734731 117.891406,20.8598633 C118.428518,20.2462534 119.19674,19.9394531 120.196093,19.9394531 C121.188937,19.9394531 121.952276,20.2462534 122.486133,20.8598633 Z M119.21709,21.7631836 C119.016893,22.1131202 118.916797,22.6884726 118.916797,23.4892578 C118.916797,24.2900431 119.016893,24.867023 119.21709,25.2202148 C119.417286,25.5734067 119.743617,25.75 120.196093,25.75 C120.635549,25.75 120.956997,25.5717791 121.160449,25.215332 C121.363901,24.8588849 121.465625,24.2835326 121.465625,23.4892578 C121.465625,22.694983 121.363901,22.1212583 121.160449,21.7680664 C120.956997,21.4148745 120.635549,21.2382812 120.196093,21.2382812 C119.743617,21.2382812 119.417286,21.4132469 119.21709,21.7631836 Z M125.894258,27 L125.894258,21.4189453 L124.600312,21.4189453 L124.600312,19.9882812 L127.671601,19.9882812 L127.671601,27 L125.894258,27 Z M132.676406,27 L130.796523,27 L133.296523,21.4091797 L131.367812,21.4091797 L131.367812,22.390625 L129.810195,22.390625 L129.810195,19.9980469 L135.259414,19.9980469 L135.259414,21.2089844 L132.676406,27 Z" id="PARTICIPANTE-ESCUELA-Copy" fill="#FFFFFF"></path>
            </g>
        </g>
    </g>
</svg>